<svg width="58" height="42" viewBox="0 0 58 42" fill="none" xmlns="http://www.w3.org/2000/svg">
<path fill-rule="evenodd" clip-rule="evenodd" d="M20.387 0C18.1779 0 15.4959 1.55343 14.3967 3.46967L0.63281 27.4639C-0.466413 29.3801 0.433354 30.9336 2.64249 30.9336H11.282L7.39289 37.7134C6.29366 39.6297 7.19343 41.1831 9.40257 41.1831H37.0642C39.2733 41.1831 41.9553 39.6297 43.0545 37.7134L56.8184 13.7192C57.9176 11.8029 57.0179 10.2495 54.8087 10.2495H46.1692L50.0583 3.46967C51.1575 1.55343 50.2578 0 48.0486 0H20.387ZM46.1692 10.2495H27.1471C24.9379 10.2495 22.256 11.8029 21.1568 13.7192L11.282 30.9336H30.3041C32.5133 30.9336 35.1952 29.3801 36.2945 27.4639L46.1692 10.2495Z" fill="#DF3030"/>
</svg>
