<svg width="42" height="24" viewBox="0 0 42 24" fill="none" xmlns="http://www.w3.org/2000/svg">
<path fill-rule="evenodd" clip-rule="evenodd" d="M17.935 0C17.3827 0 16.7122 0.388355 16.4374 0.867417L7.1172 17.1151C6.84239 17.5941 7.06733 17.9825 7.61962 17.9825H13.9671L11.0468 23.0734C10.772 23.5524 10.997 23.9408 11.5492 23.9408H30.2803C30.8326 23.9408 31.5031 23.5524 31.7779 23.0734L41.0981 6.82573C41.3729 6.34667 41.1479 5.95831 40.5956 5.95831H34.2481L37.1684 0.867418C37.4432 0.388356 37.2183 0 36.666 0H17.935ZM34.2481 5.95831H21.8646C21.3123 5.95831 20.6418 6.34667 20.367 6.82573L13.9671 17.9825H26.3507C26.903 17.9825 27.5734 17.5941 27.8482 17.1151L34.2481 5.95831Z" fill="#DF3030"/>
<path fill-rule="evenodd" clip-rule="evenodd" d="M10.935 0C10.3827 0 9.7122 0.388355 9.43739 0.867417L0.1172 17.1151C-0.157605 17.5941 0.067334 17.9825 0.619619 17.9825H6.96713L4.04683 23.0734C3.77202 23.5524 3.99696 23.9408 4.54925 23.9408H23.2803C23.8326 23.9408 24.5031 23.5524 24.7779 23.0734L34.0981 6.82573C34.3729 6.34667 34.1479 5.95831 33.5956 5.95831H27.2481L30.1684 0.867418C30.4432 0.388356 30.2183 0 29.666 0H10.935ZM27.2481 5.95831H14.8646C14.3123 5.95831 13.6418 6.34667 13.367 6.82573L6.96713 17.9825H19.3507C19.903 17.9825 20.5734 17.5941 20.8482 17.1151L27.2481 5.95831Z" fill="#30ABDF"/>
</svg>
