<svg width="141" height="102" viewBox="0 0 141 102" fill="none" xmlns="http://www.w3.org/2000/svg">
<path fill-rule="evenodd" clip-rule="evenodd" d="M50.2169 0C44.694 0 37.9892 3.88356 35.2411 8.67418L1.59607 67.3267C-1.15199 72.1174 1.09741 76.0009 6.62026 76.0009H27.6744L18.2049 92.5089C15.4568 97.2995 17.7063 101.183 23.2291 101.183H90.8465C96.3693 101.183 103.074 97.2995 105.822 92.5089L139.467 33.8564C142.215 29.0657 139.966 25.1822 134.443 25.1822H113.389L122.858 8.67418C125.607 3.88356 123.357 0 117.834 0H50.2169ZM113.389 25.1822H66.8257C61.3029 25.1822 54.598 29.0657 51.8499 33.8564L27.6744 76.0009H74.2376C79.7605 76.0009 86.4654 72.1174 89.2134 67.3267L113.389 25.1822Z" fill="#DF3030"/>
</svg>
