<svg width="35" height="25" viewBox="0 0 35 25" fill="none" xmlns="http://www.w3.org/2000/svg">
<path fill-rule="evenodd" clip-rule="evenodd" d="M12.5507 0.24231C11.4461 0.24231 10.1051 1.01902 9.55551 1.97714L1.23048 16.49C0.680867 17.4481 1.13075 18.2248 2.23532 18.2248H7.58283L5.16011 22.4483C4.6105 23.4064 5.06038 24.1831 6.16495 24.1831H22.896C24.0006 24.1831 25.3415 23.4064 25.8912 22.4483L34.2162 7.93546C34.7658 6.97733 34.3159 6.20062 33.2113 6.20062H27.8638L30.2866 1.97715C30.8362 1.01902 30.3863 0.24231 29.2817 0.24231H12.5507ZM27.8638 6.20062H16.4803C15.3757 6.20062 14.0347 6.97733 13.4851 7.93545L7.58283 18.2248H18.9664C20.0709 18.2248 21.4119 17.4481 21.9615 16.49L27.8638 6.20062Z" fill="#DF3030"/>
</svg>
